<svg width="175.3000061035156px" height="356.9999755859375px" xmlns="http://www.w3.org/2000/svg" viewBox="162.3499969482422 -103.49998779296874 175.3000061035156 356.9999755859375" style="background: rgba(0, 0, 0, 0) none repeat scroll 0% 0%;" preserveAspectRatio="xMidYMid"><defs><filter id="editing-jagged" x="-100%" y="-100%" width="300%" height="300%"><feTurbulence result="turb" baseFrequency="0" numOctaves="1" seed="1"></feTurbulence><feDisplacementMap in="SourceGraphic" in2="turb" scale="20"></feDisplacementMap></filter></defs><g filter="url(#editing-jagged)"><g transform="translate(193.8000030517578, 148.29999542236328)"><path d="M58.40-128.40L58.40-128.40L58.40-128.40Q51.20-128.40 46.40-123.20L46.40-123.20L46.40-123.20Q38-114 38-99.90L38-99.90L38-99.90Q38-85.80 45.20-83L45.20-83L45.20-83Q47-82.40 47-80.40L47-80.40L47-80.40Q47-74.40 43-70.30L43-70.30L43-70.30Q39-66.20 33.20-65.40L33.20-65.40L33.20-65.40Q31.40-65.40 31.40-64L31.40-64L31.40-64Q31.20-61.80 31.20-57.70L31.20-57.70L31.20-57.70Q31.20-53.60 31.60-48.70L31.60-48.70L31.60-48.70Q32-43.80 33.50-37.10L33.50-37.10L33.50-37.10Q35-30.40 37.50-25.50L37.50-25.50L37.50-25.50Q40-20.60 44.70-17.10L44.70-17.10L44.70-17.10Q49.40-13.60 56.90-13.60L56.90-13.60L56.90-13.60Q64.40-13.60 70.40-19.60L70.40-19.60L70.40-19.60Q76.40-25.60 78.80-35.20L78.80-35.20L78.80-35.20Q83.20-52 83.20-67.50L83.20-67.50L83.20-67.50Q83.20-83 81.20-94.80L81.20-94.80L81.20-94.80Q79.20-106.60 76.50-112.80L76.50-112.80L76.50-112.80Q73.80-119 70-122.80L70-122.80L70-122.80Q66.20-126.60 63.60-127.50L63.60-127.50L63.60-127.50Q61-128.40 58.40-128.40ZM22-108.60L22-108.60L22.80-109.80L22.80-109.80Q24.80-119 29.30-125.70L29.30-125.70L29.30-125.70Q33.80-132.40 38.30-135.70L38.30-135.70L38.30-135.70Q42.80-139 48.40-140.80L48.40-140.80L48.40-140.80Q55.80-143.20 61.40-143.20L61.40-143.20L61.40-143.20Q74.80-143.20 84.50-137L84.50-137L84.50-137Q94.20-130.80 99.20-120.20L99.20-120.20L99.20-120.20Q108.40-100 108.40-74.40L108.40-74.40L108.40-74.40Q108.40-31.40 88.40-11.80L88.40-11.80L88.40-11.80Q78.60-2.20 66.80 1.20L66.80 1.20L66.80 1.20Q59.40 3.40 52.60 3.40L52.60 3.40L52.60 3.40Q27.60 3.40 15.80-13.70L15.80-13.70L15.80-13.70Q4-30.80 4-57L4-57L4-57Q4-72.20 6.60-84.90L6.60-84.90L6.60-84.90Q9.20-97.60 12-102.80L12-102.80L14.60-108L14.60-108Q15.40-109.80 17.20-109.80L17.20-109.80L17.20-109.80Q19-109.80 19.90-109.50L19.90-109.50L19.90-109.50Q20.80-109.20 21.30-108.90L21.30-108.90L21.30-108.90Q21.80-108.60 22-108.60Z" fill="#444"></path></g></g><style>text {
  font-size: 64px;
  font-family: Arial Black;
  dominant-baseline: central;
  text-anchor: middle;
}</style></svg>